<svg width="130" height="14" viewBox="0 0 130 14" fill="none" xmlns="http://www.w3.org/2000/svg">
<path d="M0.00226057 10.4365V0.590917H0.860231L7.65367 9.14249H7.20358V0.590917H8.23034V10.4365H7.37237L0.592994 1.88491H1.04308V10.4365H0.00226057ZM14.3694 10.5068C13.6005 10.5068 12.9254 10.3474 12.344 10.0286C11.7627 9.7004 11.3079 9.25501 10.9797 8.69241C10.6515 8.12043 10.4875 7.46874 10.4875 6.73736C10.4875 6.00598 10.6422 5.35898 10.9516 4.79638C11.2704 4.23377 11.7017 3.79307 12.2456 3.47426C12.7988 3.14607 13.4177 2.98198 14.1022 2.98198C14.7961 2.98198 15.4102 3.14139 15.9447 3.4602C16.4886 3.76963 16.9152 4.21033 17.2246 4.78231C17.5341 5.34492 17.6888 5.9966 17.6888 6.73736C17.6888 6.78424 17.6841 6.83582 17.6747 6.89208C17.6747 6.93896 17.6747 6.99053 17.6747 7.04679H11.247V6.30134H17.1402L16.7464 6.59671C16.7464 6.06224 16.6292 5.58871 16.3948 5.17614C16.1697 4.75418 15.8603 4.426 15.4665 4.19158C15.0727 3.95716 14.6179 3.83995 14.1022 3.83995C13.5958 3.83995 13.1411 3.95716 12.7379 4.19158C12.3347 4.426 12.0205 4.75418 11.7955 5.17614C11.5705 5.59809 11.4579 6.08099 11.4579 6.62484V6.77956C11.4579 7.34216 11.5798 7.83912 11.8236 8.27045C12.0768 8.69241 12.4237 9.02528 12.8645 9.26908C13.3145 9.50349 13.8256 9.6207 14.3975 9.6207C14.8476 9.6207 15.2649 9.541 15.6493 9.3816C16.0432 9.22219 16.3807 8.9784 16.662 8.65021L17.2246 9.29721C16.8964 9.69103 16.4839 9.99108 15.9869 10.1974C15.4993 10.4037 14.9601 10.5068 14.3694 10.5068ZM21.089 10.4365L18.3041 3.05231H19.2605L21.7923 9.902H21.3562L23.9583 3.05231H24.8163L27.3902 9.902H26.9541L29.5281 3.05231H30.4423L27.6433 10.4365H26.701L24.2255 3.99467H24.5209L22.0314 10.4365H21.089ZM38.6792 10.5068C38.0509 10.5068 37.5024 10.3896 37.0335 10.1552C36.5647 9.92076 36.199 9.56913 35.9365 9.10029C35.6833 8.63146 35.5567 8.04541 35.5567 7.34216V3.05231H36.5553V7.22964C36.5553 8.01728 36.7476 8.6127 37.132 9.0159C37.5258 9.40973 38.0744 9.60664 38.7776 9.60664C39.2933 9.60664 39.7387 9.50349 40.1138 9.29721C40.4982 9.08154 40.7889 8.77211 40.9858 8.36891C41.1921 7.96571 41.2953 7.48281 41.2953 6.92021V3.05231H42.2939V10.4365H41.3375V8.41111L41.4922 8.7768C41.2578 9.32065 40.8921 9.74729 40.3951 10.0567C39.9075 10.3568 39.3355 10.5068 38.6792 10.5068ZM47.0602 10.5068C46.4507 10.5068 45.874 10.4224 45.3302 10.2536C44.7863 10.0755 44.3597 9.85512 44.0503 9.59257L44.5003 8.80493C44.8004 9.02997 45.1848 9.22688 45.6537 9.39566C46.1225 9.55507 46.6148 9.63477 47.1305 9.63477C47.8338 9.63477 48.3401 9.52694 48.6495 9.31127C48.959 9.08623 49.1137 8.79086 49.1137 8.42517C49.1137 8.15325 49.0246 7.94227 48.8465 7.79224C48.6777 7.63284 48.4526 7.51563 48.1713 7.44061C47.89 7.35622 47.5759 7.2859 47.229 7.22964C46.882 7.17338 46.5351 7.10774 46.1882 7.03273C45.8506 6.95771 45.5412 6.84988 45.2599 6.70923C44.9786 6.5592 44.7488 6.3576 44.5707 6.10443C44.4019 5.85126 44.3175 5.5137 44.3175 5.09174C44.3175 4.68855 44.43 4.32754 44.6551 4.00873C44.8801 3.68992 45.2083 3.44144 45.6396 3.26328C46.0803 3.07575 46.6148 2.98198 47.243 2.98198C47.7212 2.98198 48.1995 3.04762 48.6777 3.17889C49.1559 3.30079 49.5497 3.46488 49.8591 3.67117L49.4231 4.47288C49.0949 4.24784 48.7433 4.08844 48.3682 3.99467C47.9932 3.89152 47.6181 3.83995 47.243 3.83995C46.5773 3.83995 46.085 3.95716 45.7662 4.19158C45.4568 4.41662 45.3021 4.7073 45.3021 5.06361C45.3021 5.34492 45.3864 5.56527 45.5552 5.72467C45.7334 5.88408 45.9631 6.01066 46.2444 6.10443C46.5351 6.18882 46.8492 6.25915 47.1868 6.31541C47.5337 6.37167 47.876 6.44199 48.2135 6.52638C48.5605 6.6014 48.8746 6.70923 49.1559 6.84988C49.4466 6.98115 49.6763 7.17338 49.8451 7.42655C50.0232 7.67034 50.1123 7.99384 50.1123 8.39704C50.1123 8.82837 49.9904 9.20344 49.7466 9.52225C49.5122 9.83168 49.1653 10.0755 48.7058 10.2536C48.2557 10.4224 47.7072 10.5068 47.0602 10.5068ZM55.0812 10.5068C54.3124 10.5068 53.6372 10.3474 53.0559 10.0286C52.4745 9.7004 52.0197 9.25501 51.6916 8.69241C51.3634 8.12043 51.1993 7.46874 51.1993 6.73736C51.1993 6.00598 51.354 5.35898 51.6634 4.79638C51.9822 4.23377 52.4136 3.79307 52.9574 3.47426C53.5106 3.14607 54.1295 2.98198 54.814 2.98198C55.5079 2.98198 56.1221 3.14139 56.6565 3.4602C57.2004 3.76963 57.627 4.21033 57.9365 4.78231C58.2459 5.34492 58.4006 5.9966 58.4006 6.73736C58.4006 6.78424 58.3959 6.83582 58.3865 6.89208C58.3865 6.93896 58.3865 6.99053 58.3865 7.04679H51.9588V6.30134H57.8521L57.4582 6.59671C57.4582 6.06224 57.341 5.58871 57.1066 5.17614C56.8816 4.75418 56.5721 4.426 56.1783 4.19158C55.7845 3.95716 55.3297 3.83995 54.814 3.83995C54.3077 3.83995 53.8529 3.95716 53.4497 4.19158C53.0465 4.426 52.7324 4.75418 52.5073 5.17614C52.2823 5.59809 52.1698 6.08099 52.1698 6.62484V6.77956C52.1698 7.34216 52.2917 7.83912 52.5355 8.27045C52.7886 8.69241 53.1356 9.02528 53.5763 9.26908C54.0264 9.50349 54.5374 9.6207 55.1094 9.6207C55.5595 9.6207 55.9767 9.541 56.3612 9.3816C56.755 9.22219 57.0925 8.9784 57.3739 8.65021L57.9365 9.29721C57.6083 9.69103 57.1957 9.99108 56.6987 10.1974C56.2111 10.4037 55.672 10.5068 55.0812 10.5068ZM60.4332 10.4365V3.05231H61.3897V5.06361L61.2912 4.71199C61.4975 4.14938 61.8444 3.72274 62.332 3.43206C62.8196 3.13201 63.4244 2.98198 64.1464 2.98198V3.95247C64.1089 3.95247 64.0714 3.95247 64.0339 3.95247C63.9964 3.9431 63.9589 3.93841 63.9214 3.93841C63.1431 3.93841 62.5336 4.17751 62.0929 4.65573C61.6522 5.12456 61.4318 5.795 61.4318 6.66703V10.4365H60.4332ZM68.06 7.48281C68.06 7.08899 68.121 6.75143 68.2429 6.47012C68.3741 6.18882 68.5335 5.94034 68.7211 5.72467C68.918 5.50901 69.1243 5.30741 69.3399 5.11988C69.565 4.93234 69.776 4.74481 69.9729 4.55727C70.1698 4.36036 70.3292 4.14938 70.4511 3.92434C70.573 3.68992 70.6339 3.418 70.6339 3.10857C70.6339 2.60222 70.437 2.18965 70.0432 1.87084C69.6494 1.55203 69.0915 1.39263 68.3695 1.39263C67.7693 1.39263 67.2489 1.49108 66.8082 1.68799C66.3675 1.87553 65.9925 2.15683 65.683 2.5319L64.9376 1.9693C65.3126 1.50046 65.7955 1.13946 66.3863 0.886285C66.977 0.633113 67.6615 0.506527 68.4398 0.506527C69.0961 0.506527 69.6634 0.604983 70.1417 0.801893C70.6292 0.998805 71.0043 1.28011 71.2669 1.6458C71.5388 2.01149 71.6747 2.44751 71.6747 2.95385C71.6747 3.35705 71.6091 3.70399 71.4778 3.99467C71.3559 4.27597 71.1965 4.52914 70.9996 4.75418C70.8121 4.96985 70.6058 5.17614 70.3808 5.37305C70.1651 5.56058 69.9588 5.7528 69.7619 5.94972C69.565 6.14663 69.4056 6.36698 69.2837 6.61077C69.1618 6.85457 69.1008 7.14525 69.1008 7.48281H68.06ZM68.5804 10.5068C68.3835 10.5068 68.21 10.4365 68.06 10.2958C67.9194 10.1458 67.849 9.97233 67.849 9.77542C67.849 9.56913 67.9194 9.40035 68.06 9.26908C68.21 9.12842 68.3835 9.0581 68.5804 9.0581C68.7961 9.0581 68.9743 9.12842 69.1149 9.26908C69.2556 9.40035 69.3259 9.56913 69.3259 9.77542C69.3259 9.97233 69.2556 10.1458 69.1149 10.2958C68.9743 10.4365 68.7961 10.5068 68.5804 10.5068Z" fill="black"/>
<path d="M80.7341 10.5209C80.0027 10.5209 79.2995 10.4037 78.6243 10.1692C77.9586 9.92545 77.4429 9.61601 77.0772 9.24095L77.4851 8.43924C77.832 8.7768 78.2961 9.06279 78.8775 9.29721C79.4682 9.52225 80.0871 9.63477 80.7341 9.63477C81.353 9.63477 81.8546 9.55975 82.2391 9.40973C82.6329 9.25032 82.9189 9.03935 83.097 8.7768C83.2846 8.51425 83.3783 8.22357 83.3783 7.90476C83.3783 7.52032 83.2658 7.21088 83.0408 6.97647C82.8251 6.74205 82.5391 6.5592 82.1828 6.42793C81.8265 6.28728 81.4327 6.16538 81.0013 6.06224C80.57 5.95909 80.1387 5.85126 79.7073 5.73874C79.276 5.61684 78.8775 5.45744 78.5118 5.26053C78.1555 5.06361 77.8648 4.80575 77.6398 4.48695C77.4241 4.15876 77.3163 3.73212 77.3163 3.20702C77.3163 2.71943 77.4429 2.27404 77.696 1.87084C77.9586 1.45826 78.3571 1.13008 78.8916 0.886285C79.426 0.633113 80.1105 0.506527 80.9451 0.506527C81.4983 0.506527 82.0468 0.586229 82.5907 0.745634C83.1345 0.895661 83.6034 1.10664 83.9972 1.37856L83.6456 2.2084C83.2236 1.9271 82.7735 1.72081 82.2953 1.58954C81.8265 1.45826 81.3717 1.39263 80.931 1.39263C80.3403 1.39263 79.8527 1.47233 79.4682 1.63173C79.0838 1.79114 78.7978 2.0068 78.6103 2.27873C78.4321 2.54128 78.343 2.84133 78.343 3.17889C78.343 3.56334 78.4509 3.87277 78.6665 4.10719C78.8916 4.34161 79.1822 4.52445 79.5386 4.65573C79.9042 4.787 80.3028 4.90421 80.7341 5.00735C81.1654 5.1105 81.5921 5.22302 82.014 5.34492C82.4453 5.46681 82.8392 5.62622 83.1955 5.82313C83.5612 6.01066 83.8519 6.26384 84.0675 6.58264C84.2926 6.90145 84.4051 7.31872 84.4051 7.83444C84.4051 8.31265 84.2738 8.75804 84.0113 9.17062C83.7487 9.57382 83.3455 9.902 82.8017 10.1552C82.2672 10.399 81.578 10.5209 80.7341 10.5209ZM86.4619 10.4365V3.05231H87.4605V10.4365H86.4619ZM86.9682 1.42076C86.7619 1.42076 86.5885 1.35043 86.4478 1.20978C86.3072 1.06913 86.2368 0.90035 86.2368 0.703438C86.2368 0.506527 86.3072 0.342434 86.4478 0.21116C86.5885 0.0705092 86.7619 0.000183837 86.9682 0.000183837C87.1745 0.000183837 87.348 0.0658209 87.4886 0.197095C87.6293 0.328369 87.6996 0.492462 87.6996 0.689373C87.6996 0.895661 87.6293 1.06913 87.4886 1.20978C87.3574 1.35043 87.1839 1.42076 86.9682 1.42076ZM93.3897 13.2354C92.7146 13.2354 92.0676 13.137 91.4487 12.9401C90.8299 12.7432 90.3282 12.4618 89.9438 12.0962L90.4501 11.3366C90.797 11.6461 91.2237 11.8899 91.73 12.068C92.2457 12.2556 92.7896 12.3493 93.3616 12.3493C94.2992 12.3493 94.9884 12.129 95.4291 11.6883C95.8698 11.2569 96.0902 10.5818 96.0902 9.6629V7.82037L96.2308 6.55451L96.1324 5.28866V3.05231H97.0888V9.53631C97.0888 10.8115 96.7747 11.7445 96.1465 12.3353C95.5276 12.9354 94.6087 13.2354 93.3897 13.2354ZM93.2069 10.1552C92.5036 10.1552 91.8707 10.0051 91.3081 9.70509C90.7455 9.39566 90.3001 8.96902 89.9719 8.42517C89.6531 7.88132 89.4937 7.25777 89.4937 6.55451C89.4937 5.85126 89.6531 5.2324 89.9719 4.69792C90.3001 4.15407 90.7455 3.73212 91.3081 3.43206C91.8707 3.13201 92.5036 2.98198 93.2069 2.98198C93.8632 2.98198 94.454 3.11794 94.9791 3.38987C95.5042 3.66179 95.9214 4.06499 96.2308 4.59947C96.5403 5.13394 96.695 5.78562 96.695 6.55451C96.695 7.32341 96.5403 7.97509 96.2308 8.50956C95.9214 9.04403 95.5042 9.45192 94.9791 9.73322C94.454 10.0145 93.8632 10.1552 93.2069 10.1552ZM93.3053 9.26908C93.8492 9.26908 94.3321 9.15655 94.754 8.93151C95.176 8.6971 95.5088 8.37829 95.7526 7.97509C95.9964 7.56251 96.1183 7.08899 96.1183 6.55451C96.1183 6.02004 95.9964 5.5512 95.7526 5.14801C95.5088 4.74481 95.176 4.43069 94.754 4.20564C94.3321 3.97123 93.8492 3.85402 93.3053 3.85402C92.7708 3.85402 92.2879 3.97123 91.8566 4.20564C91.4347 4.43069 91.1018 4.74481 90.858 5.14801C90.6236 5.5512 90.5064 6.02004 90.5064 6.55451C90.5064 7.08899 90.6236 7.56251 90.858 7.97509C91.1018 8.37829 91.4347 8.6971 91.8566 8.93151C92.2879 9.15655 92.7708 9.26908 93.3053 9.26908ZM103.637 2.98198C104.237 2.98198 104.762 3.09919 105.212 3.33361C105.672 3.55865 106.028 3.90559 106.281 4.37443C106.544 4.84326 106.675 5.434 106.675 6.14663V10.4365H105.677V6.24508C105.677 5.46681 105.48 4.88077 105.086 4.48695C104.701 4.08375 104.158 3.88215 103.454 3.88215C102.929 3.88215 102.47 3.98998 102.076 4.20564C101.691 4.41193 101.391 4.71668 101.176 5.11988C100.969 5.5137 100.866 5.99191 100.866 6.55451V10.4365H99.8677V3.05231H100.824V5.07768L100.669 4.69792C100.904 4.16345 101.279 3.74619 101.795 3.44613C102.31 3.1367 102.924 2.98198 103.637 2.98198ZM116.106 10.5068C115.478 10.5068 114.929 10.3896 114.46 10.1552C113.991 9.92076 113.626 9.56913 113.363 9.10029C113.11 8.63146 112.983 8.04541 112.983 7.34216V3.05231H113.982V7.22964C113.982 8.01728 114.174 8.6127 114.559 9.0159C114.952 9.40973 115.501 9.60664 116.204 9.60664C116.72 9.60664 117.165 9.50349 117.54 9.29721C117.925 9.08154 118.216 8.77211 118.412 8.36891C118.619 7.96571 118.722 7.48281 118.722 6.92021V3.05231H119.721V10.4365H118.764V8.41111L118.919 8.7768C118.684 9.32065 118.319 9.74729 117.822 10.0567C117.334 10.3568 116.762 10.5068 116.106 10.5068ZM126.315 10.5068C125.678 10.5068 125.101 10.3615 124.585 10.0708C124.07 9.77073 123.657 9.34409 123.348 8.79086C123.048 8.22826 122.897 7.54376 122.897 6.73736C122.897 5.93096 123.048 5.25115 123.348 4.69792C123.648 4.13532 124.056 3.70868 124.571 3.418C125.087 3.12732 125.668 2.98198 126.315 2.98198C127.019 2.98198 127.647 3.14139 128.2 3.4602C128.763 3.76963 129.203 4.21033 129.522 4.78231C129.841 5.34492 130 5.9966 130 6.73736C130 7.4875 129.841 8.14387 129.522 8.70647C129.203 9.26908 128.763 9.70978 128.2 10.0286C127.647 10.3474 127.019 10.5068 126.315 10.5068ZM122.504 13.1651V3.05231H123.46V5.27459L123.362 6.75142L123.502 8.24232V13.1651H122.504ZM126.245 9.6207C126.77 9.6207 127.239 9.50349 127.651 9.26908C128.064 9.02528 128.392 8.68772 128.636 8.25639C128.88 7.81568 129.002 7.30934 129.002 6.73736C129.002 6.16538 128.88 5.66373 128.636 5.2324C128.392 4.80107 128.064 4.4635 127.651 4.21971C127.239 3.97591 126.77 3.85402 126.245 3.85402C125.72 3.85402 125.246 3.97591 124.824 4.21971C124.412 4.4635 124.084 4.80107 123.84 5.2324C123.605 5.66373 123.488 6.16538 123.488 6.73736C123.488 7.30934 123.605 7.81568 123.84 8.25639C124.084 8.68772 124.412 9.02528 124.824 9.26908C125.246 9.50349 125.72 9.6207 126.245 9.6207Z" fill="#80CC2D"/>
</svg>
